<svg xmlns="http://www.w3.org/2000/svg" viewBox="0 0 24 24" id="analytics">
  <path d="m18,3.25H6c-1.517,0-2.75,1.233-2.75,2.75v12c0,1.517,1.233,2.75,2.75,2.75h12c1.517,0,2.75-1.233,2.75-2.75V6c0-1.517-1.233-2.75-2.75-2.75Zm1.25,14.75c0,.689-.561,1.25-1.25,1.25H6c-.689,0-1.25-.561-1.25-1.25V6c0-.689.561-1.25,1.25-1.25h12c.689,0,1.25.561,1.25,1.25v12Zm-10.5-6v4c0,.414-.336.75-.75.75s-.75-.336-.75-.75v-4c0-.414.336-.75.75-.75s.75.336.75.75Zm4-4v8c0,.414-.336.75-.75.75s-.75-.336-.75-.75v-8c0-.414.336-.75.75-.75s.75.336.75.75Zm4,2v6c0,.414-.336.75-.75.75s-.75-.336-.75-.75v-6c0-.414.336-.75.75-.75s.75.336.75.75Z"></path>
</svg>
