<svg xmlns="http://www.w3.org/2000/svg" width="32" height="32" id="refresh">
  <path fill-rule="evenodd" d="M16 0A16 16 0 0 0 0 16a16 16 0 0 0 16 16 16 16 0 0 0 16-16A16 16 0 0 0 16 0zm-.408 9.775c.333-.018.67-.005 1.012.04 2.53.326 4.46 2.325 4.728 4.775l.414-.408a.5.5 0 1 1 .701.71l-1.209 1.196a.5.5 0 0 1-.703 0l-1.21-1.195a.5.5 0 0 1 .343-.862.5.5 0 0 1 .36.15l.294.292c-.306-1.892-1.838-3.408-3.845-3.666-2.247-.29-4.351 1.091-4.934 3.22a.5.5 0 0 1-.965-.263c.626-2.288 2.683-3.866 5.014-3.989zm-4.5 5.995a.5.5 0 0 1 .361.142l1.211 1.195a.5.5 0 1 1-.703.713l-.295-.29c.307 1.89 1.84 3.407 3.846 3.665 2.247.29 4.35-1.093 4.933-3.222a.5.5 0 0 1 .965.263c-.715 2.615-3.298 4.301-6.025 3.95-2.53-.327-4.46-2.325-4.729-4.774l-.414.408a.5.5 0 1 1-.701-.713l1.209-1.195a.5.5 0 0 1 .342-.142z"></path>
</svg>
